<?xml version="1.0" standalone="no"?><!DOCTYPE svg PUBLIC "-//W3C//DTD SVG 1.1//EN" "http://www.w3.org/Graphics/SVG/1.1/DTD/svg11.dtd"><svg t="1637639550984" class="icon" viewBox="0 0 1024 1024" version="1.1" xmlns="http://www.w3.org/2000/svg" p-id="2551" width="200" height="200" xmlns:xlink="http://www.w3.org/1999/xlink"><defs><style type="text/css"></style></defs><path d="M893.312 321.28C820.352 175.744 674.261333 85.333333 512 85.333333 276.736 85.333333 85.333333 276.736 85.333333 512s191.402667 426.666667 426.666667 426.666667c162.261333 0 308.352-90.410667 381.312-235.946667a42.666667 42.666667 0 0 0-16.938667-56.149333L640.725333 512l235.605334-134.528c19.669333-11.264 27.136-35.925333 16.981333-56.192z m-359.808 153.685333a42.624 42.624 0 0 0 0 74.069334l263.381333 150.4A339.157333 339.157333 0 0 1 512 853.333333c-188.202667 0-341.333333-153.130667-341.333333-341.333333s153.130667-341.333333 341.333333-341.333333a339.2 339.2 0 0 1 284.885333 153.856l-263.381333 150.442666z" p-id="2552" fill="#d4237a"></path><path d="M490.666667 320m-64 0a64 64 0 1 0 128 0 64 64 0 1 0-128 0Z" p-id="2553" fill="#d4237a"></path></svg>